<svg width="41" height="41" viewBox="0 0 41 41" fill="none" xmlns="http://www.w3.org/2000/svg">
<rect x="0.200195" y="0.5" width="40" height="40" rx="8" fill="#E5A240" fill-opacity="0.1"/>
<path d="M20.2002 30.5C25.723 30.5 30.2002 26.0228 30.2002 20.5C30.2002 14.9772 25.723 10.5 20.2002 10.5C14.6773 10.5 10.2002 14.9772 10.2002 20.5C10.2002 22.0997 10.5758 23.6116 11.2437 24.9525C11.4211 25.3088 11.4802 25.7161 11.3773 26.1006L10.7817 28.3267C10.5231 29.293 11.4072 30.177 12.3735 29.9185L14.5996 29.3229C14.9841 29.22 15.3914 29.2791 15.7477 29.4565C17.0886 30.1244 18.6005 30.5 20.2002 30.5Z" stroke="#E5A240" stroke-width="1.5"/>
<path d="M17.2002 20.58L19.2002 22.5L23.2002 18.5" stroke="#E5A240" stroke-width="1.5" stroke-linecap="round" stroke-linejoin="round"/>
</svg>
