<svg width="40" height="40" viewBox="0 0 40 40" fill="none" xmlns="http://www.w3.org/2000/svg">
<rect width="40" height="40" rx="8" fill="#54565B" fill-opacity="0.1"/>
<path d="M23.5777 11.382L25.5777 12.4315C27.7294 13.5607 28.8052 14.1252 29.4026 15.1397C30 16.1542 30 17.4167 30 19.9415V20.0585C30 22.5833 30 23.8458 29.4026 24.8603C28.8052 25.8748 27.7294 26.4393 25.5777 27.5685L23.5777 28.618C21.8221 29.5393 20.9443 30 20 30C19.0557 30 18.1779 29.5393 16.4223 28.618L14.4223 27.5685C12.2706 26.4393 11.1948 25.8748 10.5974 24.8603C10 23.8458 10 22.5833 10 20.0585V19.9415C10 17.4167 10 16.1542 10.5974 15.1397C11.1948 14.1252 12.2706 13.5607 14.4223 12.4315L16.4223 11.382C18.1779 10.4607 19.0557 10 20 10C20.9443 10 21.8221 10.4607 23.5777 11.382Z" stroke="#54565B" stroke-width="1.5" stroke-linecap="round"/>
<path d="M29 15.5L20 20M20 20L11 15.5M20 20V29.5" stroke="#54565B" stroke-width="1.5" stroke-linecap="round"/>
</svg>
