<svg width="41" height="41" viewBox="0 0 41 41" fill="none" xmlns="http://www.w3.org/2000/svg">
<rect x="0.599609" y="0.5" width="40" height="40" rx="8" fill="#32A840" fill-opacity="0.1"/>
<path d="M18.3805 12.3903C18.9443 11.9097 19.2263 11.6695 19.521 11.5286C20.2028 11.2027 20.9954 11.2027 21.6772 11.5286C21.972 11.6695 22.2539 11.9097 22.8178 12.3903C23.0422 12.5815 23.1544 12.6771 23.2743 12.7575C23.549 12.9416 23.8575 13.0694 24.182 13.1334C24.3235 13.1614 24.4705 13.1731 24.7644 13.1966C25.5029 13.2555 25.8722 13.285 26.1802 13.3938C26.8927 13.6455 27.4532 14.2059 27.7049 14.9184C27.8137 15.2265 27.8432 15.5958 27.9021 16.3343C27.9255 16.6282 27.9373 16.7752 27.9652 16.9167C28.0293 17.2411 28.1571 17.5497 28.3412 17.8244C28.4215 17.9442 28.5171 18.0564 28.7084 18.2808C29.1889 18.8447 29.4292 19.1267 29.5701 19.4214C29.8959 20.1032 29.8959 20.8958 29.5701 21.5776C29.4292 21.8724 29.1889 22.1543 28.7084 22.7182C28.5171 22.9426 28.4215 23.0548 28.3412 23.1747C28.1571 23.4494 28.0293 23.7579 27.9652 24.0824C27.9373 24.2239 27.9255 24.3709 27.9021 24.6648C27.8432 25.4033 27.8137 25.7725 27.7049 26.0806C27.4532 26.7931 26.8927 27.3536 26.1802 27.6053C25.8722 27.7141 25.5029 27.7435 24.7644 27.8025C24.4705 27.8259 24.3235 27.8377 24.182 27.8656C23.8575 27.9297 23.549 28.0574 23.2743 28.2416C23.1545 28.3219 23.0422 28.4175 22.8178 28.6088C22.2539 29.0893 21.972 29.3296 21.6772 29.4705C20.9954 29.7963 20.2028 29.7963 19.521 29.4705C19.2263 29.3296 18.9443 29.0893 18.3805 28.6088C18.156 28.4175 18.0438 28.3219 17.924 28.2416C17.6493 28.0574 17.3407 27.9297 17.0163 27.8656C16.8748 27.8377 16.7278 27.8259 16.4339 27.8025C15.6954 27.7435 15.3261 27.7141 15.018 27.6053C14.3055 27.3536 13.7451 26.7931 13.4934 26.0806C13.3846 25.7725 13.3551 25.4033 13.2962 24.6648C13.2727 24.3709 13.261 24.2239 13.2331 24.0824C13.169 23.7579 13.0412 23.4494 12.8571 23.1747C12.7768 23.0548 12.6811 22.9426 12.4899 22.7182C12.0094 22.1543 11.7691 21.8724 11.6282 21.5776C11.3023 20.8958 11.3023 20.1032 11.6282 19.4214C11.7691 19.1266 12.0094 18.8447 12.4899 18.2808C12.6811 18.0564 12.7768 17.9442 12.8571 17.8244C13.0412 17.5497 13.169 17.2411 13.2331 16.9167C13.261 16.7752 13.2727 16.6282 13.2962 16.3343C13.3551 15.5958 13.3846 15.2265 13.4934 14.9184C13.7451 14.2059 14.3055 13.6455 15.0181 13.3938C15.3261 13.285 15.6954 13.2555 16.4339 13.1966C16.7278 13.1731 16.8748 13.1614 17.0163 13.1334C17.3407 13.0694 17.6493 12.9416 17.924 12.7575C18.0438 12.6771 18.156 12.5815 18.3805 12.3903Z" stroke="#32A840" stroke-width="1.5"/>
<path d="M17.0996 21L19.0996 23L24.0996 18" stroke="#32A840" stroke-width="1.5" stroke-linecap="round" stroke-linejoin="round"/>
</svg>
