<svg width="40" height="40" viewBox="0 0 40 40" fill="none" xmlns="http://www.w3.org/2000/svg">
<rect width="40" height="40" rx="8" fill="#2F65CC" fill-opacity="0.1"/>
<path d="M16 23.1871C16 22.6088 16 22.3196 15.931 22.0899C15.7714 21.5588 15.3546 21.156 14.8358 21.0313C14.6114 20.9775 14.3358 21.0002 13.7845 21.0457C12.8277 21.1247 12.3494 21.1642 11.9593 21.3151C11.06 21.6629 10.3739 22.4394 10.1131 23.4044C10 23.8229 10 24.3248 10 25.3285V25.514C10 26.5431 10 27.0577 10.123 27.493C10.3645 28.3475 10.942 29.0543 11.7113 29.437C12.1033 29.632 12.5893 29.7123 13.5613 29.8728C14.2063 29.9793 14.5288 30.0326 14.7898 29.9788C15.3041 29.8729 15.7283 29.4938 15.9085 28.9791C16 28.7178 16 28.3763 16 27.6934V23.1871Z" stroke="#2F65CC" stroke-width="1.5"/>
<path d="M24 23.1871C24 22.6088 24 22.3196 24.069 22.0899C24.2286 21.5588 24.6454 21.156 25.1642 21.0313C25.3886 20.9775 25.6642 21.0002 26.2155 21.0457C27.1723 21.1247 27.6507 21.1642 28.0407 21.3151C28.94 21.6629 29.6261 22.4394 29.8869 23.4044C30 23.8229 30 24.3248 30 25.3285V25.514C30 26.5431 30 27.0577 29.877 27.493C29.6355 28.3475 29.058 29.0543 28.2887 29.437C27.8967 29.632 27.4107 29.7123 26.4387 29.8728C25.7937 29.9793 25.4712 30.0326 25.2102 29.9788C24.6959 29.8729 24.2717 29.4938 24.0915 28.9791C24 28.7178 24 28.3763 24 27.6934V23.1871Z" stroke="#2F65CC" stroke-width="1.5"/>
<path d="M30.0004 24.7998V19.7998C30.0004 15.0858 30.0004 12.7287 28.5359 11.2643C27.0714 9.7998 24.7143 9.7998 20.0002 9.7998C15.2861 9.7998 12.929 9.7998 11.4645 11.2643C10 12.7287 10 15.0858 10 19.7998V24.7998" stroke="#2F65CC" stroke-width="1.5"/>
</svg>
