<svg width="40" height="40" viewBox="0 0 40 40" fill="none" xmlns="http://www.w3.org/2000/svg">
<rect width="40" height="40" rx="8" fill="#32A840" fill-opacity="0.1"/>
<path d="M17 27C14.1911 27 12.7866 27 11.7777 26.3259C11.341 26.034 10.966 25.659 10.6741 25.2223C10 24.2134 10 22.8089 10 20C10 17.1911 10 15.7866 10.6741 14.7777C10.966 14.341 11.341 13.966 11.7777 13.6741C12.7866 13 14.1911 13 17 13L23 13C25.8089 13 27.2134 13 28.2223 13.6741C28.659 13.966 29.034 14.341 29.3259 14.7777C30 15.7866 30 17.1911 30 20C30 22.8089 30 24.2134 29.3259 25.2223C29.034 25.659 28.659 26.034 28.2223 26.3259C27.2134 27 25.8089 27 23 27H17Z" stroke="#32A840" stroke-width="1.5"/>
<path d="M20 17C21.6569 17 23 18.3431 23 20C23 21.6569 21.6569 23 20 23C18.3431 23 17 21.6569 17 20C17 18.3431 18.3431 17 20 17Z" stroke="#32A840" stroke-width="1.5"/>
<path d="M13.5 23L13.5 17" stroke="#32A840" stroke-width="1.5" stroke-linecap="round"/>
<path d="M26.5 23L26.5 17" stroke="#32A840" stroke-width="1.5" stroke-linecap="round"/>
</svg>
