<svg width="40" height="40" viewBox="0 0 40 40" fill="none" xmlns="http://www.w3.org/2000/svg">
<rect width="40" height="40" rx="8" fill="#E5A240" fill-opacity="0.1"/>
<path d="M17 23L23 17" stroke="#E5A240" stroke-width="1.5" stroke-linecap="round"/>
<path d="M23 22.5C23 22.7761 22.7761 23 22.5 23C22.2239 23 22 22.7761 22 22.5C22 22.2239 22.2239 22 22.5 22C22.7761 22 23 22.2239 23 22.5Z" fill="#E5A240" stroke="#E5A240"/>
<path d="M18.5 17.5C18.5 18.0523 18.0523 18.5 17.5 18.5C16.9477 18.5 16.5 18.0523 16.5 17.5C16.5 16.9477 16.9477 16.5 17.5 16.5C18.0523 16.5 18.5 16.9477 18.5 17.5Z" fill="#E5A240"/>
<path d="M10 20C10 15.286 10 12.9289 11.4645 11.4645C12.9289 10 15.286 10 20 10C24.714 10 27.0711 10 28.5355 11.4645C30 12.9289 30 15.286 30 20C30 24.714 30 27.0711 28.5355 28.5355C27.0711 30 24.714 30 20 30C15.286 30 12.9289 30 11.4645 28.5355C10 27.0711 10 24.714 10 20Z" stroke="#E5A240" stroke-width="1.5"/>
</svg>
