<svg width="40" height="40" viewBox="0 0 40 40" fill="none" xmlns="http://www.w3.org/2000/svg">
<rect width="40" height="40" rx="8" fill="#2F65CC" fill-opacity="0.1"/>
<circle cx="20" cy="14" r="4" stroke="#2F65CC" stroke-width="1.5"/>
<path d="M26 17C27.6569 17 29 15.8807 29 14.5C29 13.1193 27.6569 12 26 12" stroke="#2F65CC" stroke-width="1.5" stroke-linecap="round"/>
<path d="M14 17C12.3431 17 11 15.8807 11 14.5C11 13.1193 12.3431 12 14 12" stroke="#2F65CC" stroke-width="1.5" stroke-linecap="round"/>
<ellipse cx="20" cy="25" rx="6" ry="4" stroke="#2F65CC" stroke-width="1.5"/>
<path d="M28 27C29.7542 26.6153 31 25.6411 31 24.5C31 23.3589 29.7542 22.3847 28 22" stroke="#2F65CC" stroke-width="1.5" stroke-linecap="round"/>
<path d="M12 27C10.2458 26.6153 9 25.6411 9 24.5C9 23.3589 10.2458 22.3847 12 22" stroke="#2F65CC" stroke-width="1.5" stroke-linecap="round"/>
</svg>
